<svg width="122" height="44" viewBox="0 0 122 44" fill="none" xmlns="http://www.w3.org/2000/svg">
<g filter="url(#filter0_d_32_11)">
<rect x="4" width="114" height="36" rx="18" fill="#F4F4F4" fill-opacity="0.6" shape-rendering="crispEdges"/>
</g>
<path d="M23 11V25M30 18L16 18" stroke="black" stroke-width="2" stroke-linecap="round"/>
<path d="M44.9691 12.9175H46.6598V23H44.8247L39.1134 15.6392V23H37.4021V12.9175H39.1134L44.9691 20.4433V12.9175ZM56.3796 19.866H50.359C50.4002 20.4158 50.6545 20.8625 51.1219 21.2062C51.5892 21.5498 52.1322 21.7216 52.7507 21.7216C53.7267 21.7216 54.4552 21.4192 54.9363 20.8144L55.8641 21.8247C55.0394 22.6907 53.9603 23.1237 52.627 23.1237C51.5274 23.1237 50.6064 22.7595 49.8641 22.0309C49.1219 21.3024 48.7507 20.3402 48.7507 19.1443C48.7507 17.9759 49.1287 17.0275 49.8847 16.299C50.6408 15.5704 51.5548 15.2062 52.627 15.2062C53.6992 15.2062 54.5926 15.5292 55.3074 16.1753C56.0222 16.8213 56.3796 17.6804 56.3796 18.7526V19.866ZM54.7713 18.5876C54.7713 17.9691 54.572 17.4811 54.1734 17.1237C53.7885 16.7663 53.2868 16.5876 52.6683 16.5876C52.0497 16.5876 51.5067 16.7732 51.0394 17.1443C50.5858 17.5155 50.359 17.9966 50.359 18.5876H54.7713ZM61.759 23H59.9033L57.2641 15.3299H58.9342L60.8311 21.1237L62.7487 15.3299H64.4188L66.3157 21.1237L68.2332 15.3299H69.9033L67.2435 23H65.3878L63.5734 17.7423L61.759 23ZM79.3415 14.4639V23H77.6302V14.4639H74.5786V12.9175H82.393V14.4639H79.3415ZM90.2369 23H88.773V21.9691C88.1269 22.7388 87.2747 23.1237 86.2163 23.1237C85.4053 23.1237 84.7386 22.8969 84.2163 22.4433C83.7077 21.9759 83.4534 21.3711 83.4534 20.6289C83.4534 19.8866 83.7283 19.323 84.2781 18.9381C84.828 18.5533 85.584 18.3608 86.5462 18.3608H88.6493V18.0722C88.6493 17.055 88.0788 16.5464 86.9379 16.5464C86.2232 16.5464 85.4809 16.8076 84.7111 17.3299L83.9895 16.3196C84.9379 15.5773 85.9964 15.2062 87.1647 15.2062C88.1132 15.2062 88.8623 15.4467 89.4122 15.9278C89.962 16.3952 90.2369 17.1031 90.2369 18.0515V23ZM88.6287 19.4948H86.8142C85.6458 19.4948 85.0617 19.8591 85.0617 20.5876C85.0617 20.9588 85.206 21.2474 85.4946 21.4536C85.7833 21.646 86.1888 21.7423 86.7111 21.7423C87.2472 21.7423 87.7008 21.5979 88.072 21.3093C88.4431 21.0069 88.6287 20.6151 88.6287 20.134V19.4948ZM95.1465 23.1237C93.9094 23.1237 92.7959 22.7388 91.8063 21.9691L92.5898 20.7113C93.4695 21.3849 94.3355 21.7216 95.1877 21.7216C95.5451 21.7216 95.8269 21.6392 96.0331 21.4742C96.253 21.2955 96.363 21.0756 96.363 20.8144C96.363 20.4296 95.8544 20.0859 94.8372 19.7835C94.8097 19.7698 94.7753 19.756 94.7341 19.7423C94.7066 19.7285 94.686 19.7216 94.6722 19.7216C93.0777 19.2955 92.2805 18.5739 92.2805 17.5567C92.2805 16.8419 92.5485 16.2715 93.0846 15.8454C93.6344 15.4192 94.3561 15.2062 95.2496 15.2062C96.1293 15.2062 96.9678 15.4674 97.765 15.9897L97.1671 17.1856C96.5485 16.7732 95.8681 16.567 95.1258 16.567C94.2599 16.567 93.8269 16.8419 93.8269 17.3918C93.8269 17.6254 93.9094 17.7973 94.0743 17.9072C94.253 18.0034 94.5417 18.0997 94.9403 18.1959C95.5451 18.3608 96.0537 18.5258 96.4661 18.6907C96.741 18.8144 96.9815 18.945 97.1877 19.0825C97.71 19.4399 97.9712 19.9828 97.9712 20.7113C97.9712 21.4261 97.7032 22.0103 97.1671 22.4639C96.6447 22.9038 95.9712 23.1237 95.1465 23.1237ZM101.42 23H99.812V12.299H101.42V18.5876L104.534 15.3299H106.616L103.709 18.3608L106.843 23H104.864L102.595 19.6392L101.42 20.8144V23Z" fill="black"/>
<defs>
<filter id="filter0_d_32_11" x="0" y="0" width="122" height="44" filterUnits="userSpaceOnUse" color-interpolation-filters="sRGB">
<feFlood flood-opacity="0" result="BackgroundImageFix"/>
<feColorMatrix in="SourceAlpha" type="matrix" values="0 0 0 0 0 0 0 0 0 0 0 0 0 0 0 0 0 0 127 0" result="hardAlpha"/>
<feOffset dy="4"/>
<feGaussianBlur stdDeviation="2"/>
<feComposite in2="hardAlpha" operator="out"/>
<feColorMatrix type="matrix" values="0 0 0 0 0 0 0 0 0 0 0 0 0 0 0 0 0 0 0.25 0"/>
<feBlend mode="normal" in2="BackgroundImageFix" result="effect1_dropShadow_32_11"/>
<feBlend mode="normal" in="SourceGraphic" in2="effect1_dropShadow_32_11" result="shape"/>
</filter>
</defs>
</svg>
